<svg width="97" height="67" viewBox="0 0 97 67" fill="none" xmlns="http://www.w3.org/2000/svg">
<path d="M2.27119 45.813L2.55545 43.9835L17.0454 26.256C16.0568 26.5686 15.1595 26.7704 14.3534 26.8612C13.5382 26.9531 12.5593 26.9262 11.4166 26.7805L9.90845 26.5937C9.59735 26.5464 9.32753 26.5082 9.09899 26.4791C8.34927 26.3806 7.81138 26.3497 7.48532 26.3865C6.7698 26.4671 5.95176 26.8383 5.03122 27.5L5.21901 26.3537C6.55703 24.9589 7.93251 24.1819 9.34544 24.0227C9.69868 23.9829 10.2726 24.0051 11.0673 24.0894L12.6569 24.267C13.8627 24.3964 15.0678 24.3932 16.2725 24.2575C17.6582 24.1014 18.8723 23.7404 19.9149 23.1747L19.6196 25.0741L5.41028 42.6465C6.52285 42.2467 7.51841 41.9973 8.39697 41.8983C8.94946 41.8361 9.72719 41.8353 10.7302 41.8961L13.1784 42.0456C13.3515 42.0535 13.7758 42.0881 14.4513 42.1492C15.0808 42.1971 15.5677 42.2017 15.9119 42.163C17.2886 42.0078 18.497 41.1444 19.5371 39.5728L19.3186 40.9833C17.8665 43.1959 16.3933 44.3864 14.8988 44.5548C14.2014 44.6334 13.1585 44.6 11.7703 44.4545L9.94807 44.2619C8.94334 44.1556 8.05152 44.1463 7.27259 44.2341C6.20384 44.3545 4.5367 44.8808 2.27119 45.813Z" fill="#00B112"/>
<path d="M15.7043 37.5326C15.2797 37.5723 14.9195 37.4397 14.6238 37.1345C14.3312 36.8258 14.1771 36.4226 14.1613 35.9248C14.1317 34.9877 14.4575 34.0892 15.1389 33.2291C15.8203 32.3658 16.5774 31.8951 17.4103 31.8171C17.8608 31.7749 18.2371 31.9028 18.5391 32.2008C18.841 32.4988 19 32.9 19.016 33.4043C19.0468 34.3771 18.7213 35.2887 18.0396 36.139C17.3578 36.9861 16.5793 37.4506 15.7043 37.5326ZM16.245 37.056C16.7247 37.0111 17.1362 36.6625 17.4797 36.0104C17.8262 35.3546 17.9865 34.6168 17.9606 33.7969C17.9265 32.72 17.5821 32.2122 16.9274 32.2735C16.464 32.3169 16.056 32.6766 15.7036 33.3524C15.3543 34.0247 15.1923 34.7611 15.2177 35.5615C15.2511 36.6189 15.5936 37.1171 16.245 37.056Z" fill="#00B112"/>
<path d="M23.787 34.485L23.7042 34.4911C22.8282 36.4073 21.9519 37.3977 21.0753 37.4622C20.5559 37.5004 20.2886 37.212 20.2733 36.597C20.2689 36.4212 20.2894 36.1997 20.3348 35.9323L20.7476 33.5008C20.8129 33.121 20.8442 32.8742 20.8414 32.7603C20.8363 32.5586 20.7381 32.4647 20.5465 32.4788C20.2284 32.5023 19.7535 32.8942 19.122 33.6546L19.1984 33.1991C19.8871 32.3823 20.5156 31.953 21.0837 31.9112C21.5544 31.8765 21.7959 32.1033 21.808 32.5914C21.812 32.7541 21.78 33.0336 21.7118 33.4298L21.2942 35.8665C21.2574 36.0844 21.2401 36.2389 21.2423 36.33C21.2489 36.5936 21.3479 36.7184 21.5395 36.7043C21.783 36.6864 22.1441 36.3648 22.6229 35.7394C23.1049 35.1106 23.5439 34.3888 23.94 33.574L24.247 31.7958L25.2779 31.6612L24.9549 33.1912L24.5377 35.6377C24.4723 36.0174 24.441 36.2642 24.4439 36.3781C24.449 36.5831 24.5473 36.6786 24.7388 36.6645C25.0602 36.6408 25.535 36.2473 26.1633 35.4838L26.0869 35.9442C25.395 36.7613 24.7665 37.1906 24.2017 37.2322C23.7309 37.2668 23.4895 37.0384 23.4772 36.547C23.4731 36.3811 23.5052 36.1016 23.5735 35.7086L23.787 34.485Z" fill="#00B112"/>
<path d="M23.7575 40.794L24.4024 40.0684C24.7437 40.2185 25.0833 40.284 25.4213 40.2649C26.2728 40.2166 26.8205 39.5079 27.0643 38.1388L27.747 34.2832C27.8255 33.7965 27.8633 33.4735 27.8602 33.314C27.855 33.0406 27.7484 32.9098 27.5404 32.9216C27.3909 32.93 27.1303 33.0018 26.7588 33.1369L26.8115 32.8309L29.1804 31.9148L28.8398 33.498L28.2981 36.5587C28.1424 37.4342 27.968 38.0957 27.7748 38.5433C27.5817 38.994 27.2937 39.4127 26.9106 39.7993C26.2626 40.4518 25.4902 40.8034 24.5932 40.8542C24.3007 40.8708 24.0221 40.8507 23.7575 40.794ZM28.116 31.1247L28.4299 30.4423L29.807 29.4651L29.3903 30.3879L28.116 31.1247Z" fill="#00B112"/>
<path d="M37.9594 41.0906C36.3581 41.1199 35.0857 40.6451 34.1422 39.6661C33.2053 38.687 32.7315 37.3447 32.721 35.639C32.7052 33.0804 33.5701 30.8183 35.3156 28.8526C37.0677 26.8868 39.1089 25.8827 41.4393 25.8401C43.0276 25.8111 44.2869 26.2796 45.2173 27.2458C46.1542 28.2053 46.6278 29.5249 46.6381 31.2046C46.6546 33.8738 45.8095 36.1779 44.1028 38.1168C42.4027 40.0556 40.3549 41.0469 37.9594 41.0906ZM38.3361 40.4196C40.0285 40.3887 41.4746 39.467 42.6743 37.6546C43.874 35.8421 44.4661 33.6826 44.4506 31.1762C44.431 27.9992 43.3178 26.4308 41.1112 26.4711C39.4187 26.5021 37.9694 27.414 36.7631 29.2071C35.5568 31.0001 34.9612 33.1336 34.9765 35.6075C34.9966 38.8562 36.1164 40.4602 38.3361 40.4196Z" fill="#00B112"/>
<path d="M51.0049 35.6433L50.9219 35.6429C49.9949 37.4882 49.0919 38.409 48.213 38.4055C47.6922 38.4034 47.4322 38.0948 47.4331 37.4795C47.4333 37.3038 47.4596 37.0841 47.5121 36.8207L47.9889 34.4251C48.0643 34.0511 48.1021 33.8071 48.1022 33.6931C48.1025 33.4913 48.0066 33.39 47.8146 33.3893C47.4956 33.388 47.0101 33.7425 46.3581 34.4528L46.4466 34.0039C47.1572 33.2418 47.7974 32.8618 48.367 32.8641C48.839 32.866 49.0747 33.1111 49.074 33.5994C49.0738 33.7621 49.0344 34.0387 48.9557 34.429L48.474 36.8294C48.4314 37.0441 48.41 37.197 48.4099 37.2881C48.4095 37.5518 48.5054 37.684 48.6974 37.6848C48.9416 37.6858 49.3114 37.3927 49.807 36.8055C50.3059 36.215 50.7641 35.5284 51.1819 34.7455L51.5358 32.994L52.571 32.9396L52.2077 34.442L51.7259 36.8522C51.6505 37.2263 51.6127 37.4703 51.6126 37.5842C51.6123 37.7893 51.7082 37.8922 51.9003 37.893C52.2225 37.8943 52.708 37.5381 53.3568 36.8246L53.2683 37.2783C52.5543 38.0404 51.9142 38.4204 51.3478 38.4181C50.8758 38.4162 50.6401 38.1695 50.6408 37.678C50.641 37.5119 50.6804 37.2354 50.7591 36.8483L51.0049 35.6433Z" fill="#00B112"/>
<path d="M59.3096 34.7351L60.2564 33.6875L61.9223 33.7699L63.6102 26.0004C63.1472 25.9045 62.8246 25.852 62.6425 25.843C61.186 25.771 59.9345 26.238 58.8882 27.2443C57.8509 28.251 57.3198 29.5016 57.2948 30.9962L57.2916 31.1876L54.6208 32.3551C55.1293 27.0081 58.9248 24.5098 66.0072 24.8603L66.7446 24.8968L64.7899 33.9118L73.2152 34.3287L74.0892 30.2813C74.6621 27.619 75.74 25.5426 77.3229 24.0521C78.9149 22.5621 80.776 21.8698 82.9062 21.9752C83.7438 22.0167 84.4883 22.1675 85.14 22.4278L83.9316 24.4065C83.0073 23.5581 82.1629 23.115 81.3982 23.0772C80.4332 23.0294 79.6526 23.3967 79.0564 24.1789C78.4694 24.9617 77.9547 26.318 77.5124 28.248L75.1566 38.365C74.6556 40.5383 74.3992 41.9804 74.3873 42.6912C74.3716 43.6299 74.8736 44.1245 75.8932 44.1749C76.3392 44.197 76.9773 44.1784 77.8074 44.1192L77.6155 44.9716L70.6993 45.847L72.9784 35.4115L64.5532 34.9946L64.1982 36.6051C63.6362 39.1585 62.4631 41.2073 60.6788 42.7517C58.8948 44.2869 56.8648 44.9982 54.5889 44.8856C52.9048 44.8023 51.4979 44.2127 50.3682 43.1171L52.3129 41.2432C53.1616 42.7901 54.4236 43.6051 56.0986 43.6879C58.511 43.8073 60.1366 41.945 60.9753 38.101L61.6856 34.8527L59.3096 34.7351Z" fill="#00B112"/>
<path d="M80.1868 36.9809L80.0991 36.9744C79.7119 37.764 79.2537 38.3984 78.7246 38.8776C78.1955 39.3536 77.7054 39.5749 77.2542 39.5415C76.5692 39.4908 76.2374 39.0358 76.2589 38.1767C76.2826 37.2298 76.6824 36.3302 77.4582 35.478C78.2609 34.5953 79.2238 34.1954 80.3471 34.2786C80.8113 34.313 81.2961 34.3684 81.8016 34.4449L81.4148 35.8639L80.8822 38.2402C80.7981 38.6122 80.7546 38.8535 80.7518 38.9641C80.7467 39.1692 80.8399 39.2788 81.0315 39.2929C81.3561 39.317 81.8487 38.9948 82.5094 38.3265L82.4104 38.7739C81.6803 39.486 81.0329 39.8212 80.468 39.7794C79.9973 39.7445 79.7681 39.4814 79.7804 38.99C79.7844 38.8273 79.8303 38.5536 79.918 38.1689L80.1868 36.9809ZM80.6252 35.0572C80.2207 34.8447 79.8188 34.7236 79.4195 34.6941C78.8287 34.6503 78.347 34.9896 77.9744 35.7119C77.5367 36.5662 77.3091 37.3465 77.2914 38.0527C77.2786 38.5636 77.4216 38.8301 77.7202 38.8522C77.9994 38.8729 78.4077 38.6097 78.945 38.0626C79.4856 37.5125 79.9634 36.8747 80.3783 36.149L80.6252 35.0572Z" fill="#00B112"/>
<path d="M82.6921 40.391L83.083 38.9788L83.8606 35.6693C84.1312 34.5134 84.5994 33.6386 85.2651 33.0451C85.9341 32.4486 86.732 32.1938 87.659 32.2806C87.9798 32.3107 88.2704 32.3722 88.5308 32.4651L87.8378 33.1001C87.4673 32.8925 87.1459 32.7759 86.8737 32.7504C86.3584 32.7021 85.9651 32.8545 85.6939 33.2076C85.426 33.5578 85.1716 34.2503 84.9308 35.285L84.3219 37.8858L84.4046 37.8936C84.8032 37.1086 85.2667 36.4847 85.7949 36.0219C86.3265 35.5561 86.8176 35.3443 87.2681 35.3865C87.9552 35.4509 88.2851 35.9125 88.2579 36.7715C88.2279 37.7215 87.8241 38.6153 87.0467 39.4529C86.2458 40.3144 85.2895 40.6931 84.1778 40.589C84.0125 40.5735 83.8037 40.549 83.5512 40.5156L82.6921 40.391ZM83.8709 39.8113C84.2671 40.0279 84.6694 40.1553 85.0778 40.1936C85.6644 40.2486 86.1462 39.9184 86.5231 39.2032C86.9693 38.3574 87.2035 37.5815 87.2258 36.8754C87.242 36.3646 87.0994 36.0951 86.798 36.0669C86.5225 36.0411 86.1129 36.298 85.5692 36.8377C85.0289 37.3745 84.5474 38.0032 84.1247 38.724L83.8709 39.8113Z" fill="#00B112"/>
<path d="M93.002 38.2758L92.9147 38.2659C92.5179 39.0409 92.0525 39.6579 91.5184 40.1168C90.9844 40.5724 90.4926 40.7748 90.043 40.7238C89.3605 40.6464 89.0358 40.1784 89.0686 39.3196C89.1049 38.3731 89.5156 37.4885 90.3008 36.6661C91.1131 35.814 92.0788 35.4514 93.1979 35.5783C93.6604 35.6307 94.1433 35.7051 94.6463 35.8013L94.2417 37.206L93.6787 39.5629C93.5899 39.9318 93.5434 40.1716 93.5391 40.2822C93.5313 40.4871 93.6228 40.6004 93.8136 40.622C94.137 40.6587 94.6327 40.3555 95.3005 39.7125L95.1958 40.1564C94.4582 40.8405 93.808 41.1506 93.2452 41.0868C92.7762 41.0337 92.5511 40.7615 92.5699 40.2703C92.5761 40.1077 92.6255 39.8356 92.7181 39.454L93.002 38.2758ZM93.4649 36.3681C93.0643 36.1398 92.6651 36.003 92.2673 35.9579C91.6786 35.8912 91.1937 36.2119 90.8124 36.9201C90.3645 37.7579 90.1271 38.5298 90.1 39.2356C90.0805 39.7463 90.2195 40.0186 90.517 40.0523C90.7952 40.0838 91.2059 39.8364 91.7491 39.3099C92.2956 38.7805 92.7806 38.1609 93.2041 37.451L93.4649 36.3681Z" fill="#00B112"/>
<path d="M45 7H43V0H41V7H39V0H37V7C37 9.12 38.66 10.84 40.75 10.97V20H43.25V10.97C45.34 10.84 47 9.12 47 7V0H45V7ZM50 4V12H52.5V20H55V0C52.24 0 50 2.24 50 4Z" fill="#00D208"/>
</svg>
