<svg width="266" height="69" viewBox="0 0 266 69" fill="none" xmlns="http://www.w3.org/2000/svg">
<path d="M4.19599 45.7569L4.36507 43.9608L17.8889 27.379C16.908 27.6201 16.0123 27.7575 15.2018 27.7912C14.3821 27.8253 13.389 27.73 12.2222 27.5053L10.6827 27.2143C10.3645 27.1455 10.0888 27.0887 9.85543 27.0438C9.08974 26.8935 8.54297 26.8252 8.21513 26.8388C7.4957 26.8687 6.69132 27.1799 5.80199 27.7722L5.91773 26.6475C7.18227 25.3567 8.52486 24.6818 9.94551 24.6228C10.3007 24.608 10.8834 24.6703 11.6937 24.8096L13.3152 25.0972C14.5447 25.3102 15.7651 25.3915 16.9763 25.3411C18.3696 25.2832 19.5758 25.01 20.5949 24.5215L20.4193 26.3861L7.16955 42.8336C8.27037 42.5147 9.26246 42.3369 10.1458 42.3002C10.7013 42.2771 11.4889 42.3308 12.5087 42.4614L14.9979 42.7813C15.1737 42.8013 15.6057 42.8653 16.2938 42.9733C16.9345 43.065 17.4279 43.1037 17.7739 43.0893C19.1581 43.0317 20.3259 42.2594 21.2773 40.7722L21.1475 42.1569C19.8206 44.2515 18.4059 45.3301 16.9032 45.3925C16.202 45.4217 15.1437 45.3154 13.7282 45.0738L11.8702 44.755C10.8458 44.5791 9.94194 44.5074 9.15876 44.54C8.08417 44.5846 6.42991 44.9903 4.19599 45.7569Z" fill="#515151"/>
<path d="M35.7772 37.6428C35.351 37.6574 34.9804 37.5042 34.6654 37.1832C34.3534 36.8588 34.1758 36.4485 34.1327 35.9524C34.0517 35.0184 34.3314 34.1436 34.9719 33.3281C35.6122 32.5093 36.3503 32.0857 37.1864 32.0571C37.6387 32.0417 38.0252 32.1911 38.3462 32.5054C38.6671 32.8197 38.8494 33.2282 38.8931 33.7308C38.9772 34.7005 38.6986 35.5882 38.0573 36.394C37.4156 37.1966 36.6556 37.6128 35.7772 37.6428ZM36.2968 37.2006C36.7782 37.1842 37.1744 36.8616 37.4853 36.233C37.7992 35.601 37.9206 34.8764 37.8497 34.0592C37.7565 32.9858 37.3813 32.4603 36.7242 32.4827C36.2589 32.4986 35.867 32.8324 35.5483 33.484C35.2326 34.1323 35.1094 34.8554 35.1786 35.6532C35.2701 36.7071 35.6428 37.223 36.2968 37.2006Z" fill="#515151"/>
<path d="M54.2649 34.7088L54.1819 34.711C53.3835 36.5805 52.5451 37.527 51.6665 37.5506C51.1458 37.5646 50.8646 37.2646 50.8227 36.6508C50.8108 36.4755 50.8218 36.2555 50.856 35.9911L51.1664 33.5865C51.2157 33.211 51.2366 32.9664 51.2288 32.8527C51.2151 32.6514 51.1122 32.5533 50.9202 32.5584C50.6013 32.567 50.1407 32.9356 49.5384 33.6643L49.5957 33.2138C50.2531 32.4315 50.8665 32.0328 51.4359 32.0175C51.9077 32.0048 52.1603 32.2421 52.1935 32.7292C52.2046 32.8916 52.1843 33.1687 52.1328 33.5605L51.8179 35.9702C51.7902 36.1856 51.7794 36.3388 51.7856 36.4298C51.8036 36.6928 51.9085 36.8218 52.1005 36.8166C52.3446 36.8101 52.6939 36.5063 53.1484 35.9052C53.606 35.3007 54.0163 34.6016 54.3795 33.8077L54.6117 32.0494L55.6425 31.9632L55.3836 33.4733L55.0693 35.8927C55.0199 36.2682 54.9991 36.5127 55.0069 36.6264C55.0208 36.831 55.1238 36.9307 55.3158 36.9256C55.6379 36.9169 56.0984 36.5467 56.6973 35.8148L56.6403 36.2702C55.9797 37.0526 55.3663 37.4513 54.8001 37.4665C54.3283 37.4792 54.0756 37.2403 54.0422 36.7499C54.0309 36.5843 54.0511 36.3072 54.1029 35.9186L54.2649 34.7088Z" fill="#515151"/>
<path d="M65.8487 40.7008L66.4717 39.9997C66.819 40.1617 67.1619 40.2392 67.5004 40.2322C68.3531 40.2146 68.879 39.5269 69.0782 38.169L69.6351 34.3451C69.6977 33.8622 69.7248 33.5411 69.7165 33.3818C69.7021 33.1088 69.5908 32.9744 69.3826 32.9787C69.2328 32.9818 68.9738 33.0441 68.6055 33.1656L68.6483 32.8621L70.9945 32.0326L70.7054 33.6006L70.2635 36.6362C70.1364 37.5044 69.9834 38.1585 69.8044 38.5982C69.6257 39.0412 69.3506 39.4488 68.9792 39.821C68.3507 40.449 67.5874 40.7723 66.6891 40.7908C66.3962 40.7969 66.1161 40.7669 65.8487 40.7008ZM69.9004 31.2058L70.1927 30.5359L71.5418 29.6099L71.1544 30.5161L69.9004 31.2058Z" fill="#515151"/>
<path d="M91.0822 41.1747C89.4806 41.1854 88.2027 40.6959 87.2484 39.7061C86.3005 38.7164 85.8122 37.3688 85.7833 35.6633C85.74 33.1051 86.5808 30.8534 88.3059 28.9084C90.0374 26.9633 92.0685 25.983 94.3992 25.9675C95.9877 25.9569 97.2525 26.44 98.1936 27.4168C99.1411 28.387 99.6291 29.7118 99.6575 31.3913C99.7027 34.0602 98.8821 36.354 97.1957 38.2727C95.5158 40.1914 93.4779 41.1587 91.0822 41.1747ZM91.4518 40.5082C93.1444 40.4969 94.5811 39.5922 95.7617 37.794C96.9423 35.9958 97.5114 33.8437 97.4689 31.3375C97.4151 28.1609 96.2847 26.5799 94.0778 26.5946C92.3851 26.6059 90.945 27.5009 89.7576 29.2796C88.5702 31.0583 87.9974 33.1844 88.0393 35.658C88.0943 38.9063 89.2318 40.523 91.4518 40.5082Z" fill="#515151"/>
<path d="M114.869 35.6301L114.786 35.6299C113.854 37.4775 112.949 38.4007 112.07 38.3994C111.549 38.3986 111.29 38.0906 111.292 37.4754C111.293 37.2996 111.32 37.0799 111.373 36.8163L111.855 34.4196C111.932 34.0454 111.97 33.8013 111.97 33.6873C111.971 33.4855 111.876 33.3845 111.684 33.3842C111.365 33.3837 110.878 33.7395 110.224 34.4514L110.314 34.0023C111.027 33.2384 111.668 32.8568 112.237 32.8577C112.709 32.8583 112.944 33.1028 112.943 33.5911C112.942 33.7539 112.902 34.0305 112.822 34.421L112.335 36.8226C112.292 37.0374 112.27 37.1904 112.27 37.2815C112.269 37.5452 112.364 37.6772 112.556 37.6775C112.8 37.6778 113.171 37.3838 113.668 36.7953C114.168 36.2036 114.628 35.5158 115.048 34.7319L115.406 32.9795L116.441 32.9224L116.074 34.4258L115.587 36.8372C115.51 37.2114 115.472 37.4555 115.472 37.5694C115.471 37.7745 115.567 37.8772 115.759 37.8774C116.081 37.8779 116.567 37.5206 117.218 36.8054L117.128 37.2593C116.412 38.0233 115.771 38.4048 115.205 38.404C114.733 38.4033 114.498 38.1572 114.5 37.6656C114.5 37.4996 114.54 37.223 114.62 36.8357L114.869 35.6301Z" fill="#515151"/>
<path d="M145.429 34.4072L146.409 33.3314L148.077 33.3615L149.994 25.5502C149.533 25.469 149.211 25.4267 149.029 25.4234C147.571 25.3971 146.303 25.9027 145.224 26.9403C144.155 27.9781 143.587 29.2436 143.518 30.7368L143.509 30.928L140.798 32.1776C141.463 26.8224 145.341 24.2087 152.431 24.3366L153.169 24.3499L150.947 33.4133L159.381 33.5655L160.375 29.4964C161.027 26.82 162.168 24.7128 163.798 23.1749C165.437 21.6371 167.323 20.8874 169.456 20.9259C170.294 20.941 171.036 21.0683 171.682 21.3078L170.413 23.3216C169.511 22.5034 168.677 22.0874 167.912 22.0736C166.946 22.0561 166.153 22.4473 165.532 23.2472C164.921 24.0471 164.366 25.4177 163.866 27.3587L161.211 37.5351C160.645 39.721 160.346 41.1691 160.314 41.8793C160.271 42.8171 160.759 43.2952 161.78 43.3136C162.227 43.3217 162.867 43.2831 163.701 43.1979L163.484 44.0551L156.525 45.1461L159.113 34.6541L150.679 34.5019L150.276 36.1213C149.638 38.6886 148.403 40.7713 146.569 42.3694C144.736 43.9583 142.68 44.7323 140.402 44.6911C138.716 44.6607 137.323 44.1162 136.222 43.0575L138.226 41.1253C139.032 42.6434 140.273 43.4176 141.95 43.4479C144.365 43.4915 146.049 41.5809 147.001 37.7161L147.808 34.4501L145.429 34.4072Z" fill="#515151"/>
<path d="M187.56 36.7124L187.472 36.7101C187.048 37.5153 186.56 38.1691 186.007 38.6715C185.455 39.1706 184.952 39.4141 184.5 39.4019C183.813 39.3833 183.499 38.9454 183.558 38.088C183.623 37.143 184.064 36.2276 184.881 35.3419C185.726 34.4245 186.712 33.9809 187.838 34.0113C188.303 34.0239 188.788 34.0565 189.293 34.1092L188.843 35.5416L188.204 37.9353C188.104 38.31 188.05 38.5525 188.042 38.663C188.028 38.8676 188.117 38.9724 188.309 38.9776C188.634 38.9864 189.144 38.6423 189.837 37.9452L189.718 38.3959C188.953 39.1398 188.288 39.5041 187.721 39.4888C187.25 39.4761 187.03 39.2245 187.064 38.7342C187.075 38.5718 187.133 38.2968 187.238 37.9092L187.56 36.7124ZM188.084 34.7744C187.686 34.5815 187.287 34.4796 186.887 34.4688C186.295 34.4528 185.796 34.8135 185.39 35.5509C184.913 36.423 184.65 37.2114 184.602 37.9161C184.567 38.426 184.699 38.685 184.998 38.693C185.278 38.7006 185.7 38.4192 186.264 37.8487C186.832 37.2752 187.34 36.617 187.788 35.8743L188.084 34.7744Z" fill="#515151"/>
<path d="M207.199 40.2562L207.67 38.8281L208.636 35.4898C208.972 34.3238 209.492 33.4259 210.196 32.7962C210.903 32.1634 211.722 31.8628 212.653 31.8946C212.975 31.9056 213.265 31.9497 213.522 32.0268L212.788 32.6994C212.426 32.5146 212.108 32.4176 211.835 32.4082C211.318 32.3906 210.912 32.5654 210.62 32.9327C210.33 33.2968 210.036 34.0007 209.736 35.0443L208.98 37.6678L209.063 37.6706C209.508 36.8662 210.01 36.2181 210.568 35.7265C211.13 35.2318 211.637 34.9922 212.089 35.0076C212.779 35.0312 213.086 35.471 213.012 36.3272C212.93 37.2742 212.474 38.1872 211.644 39.0663C210.788 39.9706 209.803 40.4037 208.687 40.3656C208.521 40.3599 208.312 40.3479 208.059 40.3295L207.199 40.2562ZM208.42 39.61C208.808 39.8021 209.207 39.9052 209.617 39.9192C210.205 39.9393 210.71 39.5825 211.129 38.8487C211.625 37.9809 211.904 37.1952 211.965 36.4915C212.009 35.9823 211.88 35.7226 211.577 35.7122C211.301 35.7028 210.874 35.9826 210.296 36.5515C209.721 37.1174 209.201 37.7713 208.735 38.5132L208.42 39.61Z" fill="#515151"/>
<path d="M233.755 37.8366L233.667 37.833C233.215 38.6304 232.702 39.2758 232.131 39.7691C231.56 40.2593 231.049 40.495 230.597 40.4763C229.911 40.4479 229.612 40.0064 229.702 39.1517C229.801 38.2096 230.275 37.3026 231.125 36.4305C232.004 35.5272 233.006 35.0988 234.131 35.1453C234.596 35.1646 235.08 35.2041 235.584 35.2639L235.081 36.6868L234.356 39.0661C234.242 39.4386 234.179 39.6798 234.167 39.7899C234.146 39.9939 234.231 40.0998 234.423 40.1077C234.748 40.1212 235.27 39.7851 235.989 39.0995L235.854 39.5475C235.062 40.2788 234.383 40.6328 233.817 40.6094C233.345 40.5899 233.135 40.3357 233.186 39.8469C233.203 39.685 233.271 39.4115 233.39 39.0262L233.755 37.8366ZM234.35 35.9103C233.959 35.7121 233.563 35.6047 233.163 35.5882C232.571 35.5637 232.059 35.9164 231.626 36.6464C231.118 37.5097 230.826 38.2927 230.752 38.9952C230.699 39.5035 230.822 39.7638 231.121 39.7761C231.401 39.7877 231.833 39.513 232.418 38.9519C233.006 38.3877 233.539 37.7383 234.014 37.0036L234.35 35.9103Z" fill="#515151"/>
<path d="M81.0547 65.0703L81.4883 63.2656L82.291 59.2168C82.5723 57.8027 83.1016 56.7031 83.8789 55.918C84.6602 55.1289 85.6094 54.7344 86.7266 54.7344C87.1133 54.7344 87.4648 54.7754 87.7812 54.8574L86.9785 55.6953C86.5215 55.4883 86.1309 55.3848 85.8066 55.3848C85.2871 55.3848 84.8594 55.5625 84.5234 55.918C84.3281 56.125 84.1738 56.3848 84.0605 56.6973C83.9512 57.0098 83.7852 57.6562 83.5625 58.6367L82.9824 61.1973H83.0527C83.4199 60.3926 83.9023 59.7422 84.5 59.2461C85.1016 58.7461 85.7012 58.4961 86.2988 58.4961C86.959 58.4961 87.2891 58.8145 87.2891 59.4512C87.2891 60.1152 87.0195 60.6719 86.4805 61.1211C85.9414 61.5703 85.1738 61.877 84.1777 62.041C85.2871 63.5801 86.1094 64.3496 86.6445 64.3496C86.9844 64.3496 87.4082 64.1133 87.916 63.6406L87.834 64.0566C87.0566 64.7832 86.4355 65.1465 85.9707 65.1465C85.5957 65.1465 85.2168 64.9629 84.834 64.5957C84.4551 64.2246 83.7988 63.4082 82.8652 62.1465L82.2969 65L81.0547 65.0703ZM82.9297 61.8184L82.918 61.8945H83.1172C83.9375 61.8945 84.6465 61.6719 85.2441 61.2266C85.8418 60.7812 86.1406 60.2559 86.1406 59.6504C86.1406 59.2676 85.9883 59.0762 85.6836 59.0762C85.0234 59.0762 84.1055 59.9902 82.9297 61.8184ZM90.5527 65.1465C90.041 65.1465 89.6133 64.9473 89.2695 64.5488C88.9297 64.1465 88.7598 63.6465 88.7598 63.0488C88.7598 61.9238 89.1855 60.8848 90.0371 59.9316C90.8887 58.9746 91.8164 58.4961 92.8203 58.4961C93.3633 58.4961 93.8105 58.6914 94.1621 59.082C94.5137 59.4727 94.6895 59.9707 94.6895 60.5762C94.6895 61.7441 94.2637 62.7988 93.4121 63.7402C92.5605 64.6777 91.6074 65.1465 90.5527 65.1465ZM91.2207 64.6367C91.7988 64.6367 92.3066 64.2656 92.7441 63.5234C93.1855 62.7773 93.4062 61.9121 93.4062 60.9277C93.4062 59.6348 93.0117 58.9883 92.2227 58.9883C91.6641 58.9883 91.1602 59.373 90.7109 60.1426C90.2656 60.9082 90.043 61.7715 90.043 62.7324C90.043 64.002 90.4355 64.6367 91.2207 64.6367ZM100.777 61.8184H100.678C99.5684 64.0371 98.4863 65.1465 97.4316 65.1465C96.8066 65.1465 96.4941 64.7773 96.4941 64.0391C96.4941 63.8281 96.5254 63.5645 96.5879 63.248L97.1562 60.3711C97.2461 59.9219 97.291 59.6289 97.291 59.4922C97.291 59.25 97.1758 59.1289 96.9453 59.1289C96.5625 59.1289 95.9805 59.5566 95.1992 60.4121L95.3047 59.873C96.1562 58.9551 96.9238 58.4961 97.6074 58.4961C98.1738 58.4961 98.457 58.7891 98.457 59.375C98.457 59.5703 98.4102 59.9023 98.3164 60.3711L97.7422 63.2539C97.6914 63.5117 97.666 63.6953 97.666 63.8047C97.666 64.1211 97.7812 64.2793 98.0117 64.2793C98.3047 64.2793 98.748 63.9258 99.3418 63.2188C99.9395 62.5078 100.488 61.6816 100.988 60.7402L101.41 58.6367L102.652 58.5664L102.219 60.3711L101.645 63.2656C101.555 63.7148 101.51 64.0078 101.51 64.1445C101.51 64.3906 101.625 64.5137 101.855 64.5137C102.242 64.5137 102.824 64.084 103.602 63.2246L103.496 63.7695C102.641 64.6875 101.873 65.1465 101.193 65.1465C100.627 65.1465 100.344 64.8516 100.344 64.2617C100.344 64.0625 100.391 63.7305 100.484 63.2656L100.777 61.8184ZM107.656 63.1953L107.551 63.7344C106.629 64.6758 105.836 65.1465 105.172 65.1465C104.617 65.1465 104.34 64.8477 104.34 64.25C104.34 64.0039 104.381 63.6738 104.463 63.2598L105.266 59.2168C105.547 57.8027 106.076 56.7031 106.854 55.918C107.635 55.1289 108.584 54.7344 109.701 54.7344C110.092 54.7344 110.443 54.7754 110.756 54.8574L109.953 55.6953C109.5 55.4883 109.109 55.3848 108.781 55.3848C108.16 55.3848 107.693 55.6113 107.381 56.0645C107.068 56.5176 106.787 57.375 106.537 58.6367L105.617 63.2656C105.527 63.7148 105.482 64.0078 105.482 64.1445C105.482 64.3906 105.598 64.5137 105.828 64.5137C106.09 64.5137 106.596 64.166 107.346 63.4707C107.404 63.416 107.508 63.3242 107.656 63.1953ZM113.979 65.1465C113.467 65.1465 113.039 64.9473 112.695 64.5488C112.355 64.1465 112.186 63.6465 112.186 63.0488C112.186 61.9238 112.611 60.8848 113.463 59.9316C114.314 58.9746 115.242 58.4961 116.246 58.4961C116.789 58.4961 117.236 58.6914 117.588 59.082C117.939 59.4727 118.115 59.9707 118.115 60.5762C118.115 61.7441 117.689 62.7988 116.838 63.7402C115.986 64.6777 115.033 65.1465 113.979 65.1465ZM114.646 64.6367C115.225 64.6367 115.732 64.2656 116.17 63.5234C116.611 62.7773 116.832 61.9121 116.832 60.9277C116.832 59.6348 116.438 58.9883 115.648 58.9883C115.09 58.9883 114.586 59.373 114.137 60.1426C113.691 60.9082 113.469 61.7715 113.469 62.7324C113.469 64.002 113.861 64.6367 114.646 64.6367ZM124.203 61.8184H124.104C122.994 64.0371 121.912 65.1465 120.857 65.1465C120.232 65.1465 119.92 64.7773 119.92 64.0391C119.92 63.8281 119.951 63.5645 120.014 63.248L120.582 60.3711C120.672 59.9219 120.717 59.6289 120.717 59.4922C120.717 59.25 120.602 59.1289 120.371 59.1289C119.988 59.1289 119.406 59.5566 118.625 60.4121L118.73 59.873C119.582 58.9551 120.35 58.4961 121.033 58.4961C121.6 58.4961 121.883 58.7891 121.883 59.375C121.883 59.5703 121.836 59.9023 121.742 60.3711L121.168 63.2539C121.117 63.5117 121.092 63.6953 121.092 63.8047C121.092 64.1211 121.207 64.2793 121.438 64.2793C121.73 64.2793 122.174 63.9258 122.768 63.2188C123.365 62.5078 123.914 61.6816 124.414 60.7402L124.836 58.6367L126.078 58.5664L125.645 60.3711L125.07 63.2656C124.98 63.7148 124.936 64.0078 124.936 64.1445C124.936 64.3906 125.051 64.5137 125.281 64.5137C125.668 64.5137 126.25 64.084 127.027 63.2246L126.922 63.7695C126.066 64.6875 125.299 65.1465 124.619 65.1465C124.053 65.1465 123.77 64.8516 123.77 64.2617C123.77 64.0625 123.816 63.7305 123.91 63.2656L124.203 61.8184ZM127.859 68.8262L128.697 67.9531C129.072 68.1055 129.455 68.1816 129.846 68.1816C130.404 68.1816 130.834 67.9922 131.135 67.6133C131.439 67.2344 131.666 66.6074 131.814 65.7324L132.939 59.0703H131.627L132.037 58.6367H133.027L133.045 58.5605C133.268 57.4277 133.781 56.5078 134.586 55.8008C135.391 55.0898 136.324 54.7344 137.387 54.7344C137.727 54.7344 138.041 54.7676 138.33 54.834L137.492 55.7246C137.129 55.498 136.756 55.3848 136.373 55.3848C135.787 55.3848 135.352 55.5586 135.066 55.9062C134.781 56.25 134.547 56.8828 134.363 57.8047L134.193 58.6367H136.385L135.91 59.1582C135.414 59.0996 134.916 59.0703 134.416 59.0703H134.111L133.256 64.1094C132.998 65.6406 132.484 66.8223 131.715 67.6543C130.945 68.4863 129.98 68.9023 128.82 68.9023C128.516 68.9023 128.195 68.877 127.859 68.8262ZM141.031 61.8184H140.926C140.484 62.7988 139.953 63.5996 139.332 64.2207C138.711 64.8379 138.129 65.1465 137.586 65.1465C136.762 65.1465 136.35 64.6309 136.35 63.5996C136.35 62.4629 136.803 61.3496 137.709 60.2598C138.646 59.1309 139.791 58.5664 141.143 58.5664C141.701 58.5664 142.285 58.5898 142.895 58.6367L142.473 60.3711L141.904 63.2656C141.814 63.7188 141.77 64.0117 141.77 64.1445C141.77 64.3906 141.885 64.5137 142.115 64.5137C142.506 64.5137 143.088 64.084 143.861 63.2246L143.756 63.7695C142.9 64.6875 142.133 65.1465 141.453 65.1465C140.887 65.1465 140.604 64.8516 140.604 64.2617C140.604 64.0664 140.65 63.7344 140.744 63.2656L141.031 61.8184ZM141.5 59.4746C141.008 59.2559 140.521 59.1465 140.041 59.1465C139.33 59.1465 138.762 59.5957 138.336 60.4941C137.836 61.5566 137.586 62.5117 137.586 63.3594C137.586 63.9727 137.766 64.2793 138.125 64.2793C138.461 64.2793 138.943 63.9277 139.572 63.2246C140.205 62.5176 140.76 61.7109 141.236 60.8047L141.5 59.4746ZM144.307 65.0703L144.74 63.2656L145.543 59.2168C145.824 57.8027 146.354 56.7031 147.131 55.918C147.912 55.1289 148.861 54.7344 149.979 54.7344C150.365 54.7344 150.717 54.7754 151.033 54.8574L150.23 55.6953C149.773 55.4883 149.383 55.3848 149.059 55.3848C148.438 55.3848 147.971 55.6113 147.658 56.0645C147.346 56.5137 147.064 57.3711 146.814 58.6367L146.182 61.8184H146.275C146.76 60.8184 147.311 60.0156 147.928 59.4102C148.545 58.8008 149.117 58.4961 149.645 58.4961C150.289 58.4961 150.611 58.8516 150.611 59.5625C150.611 59.7969 150.578 60.0781 150.512 60.4062L149.943 63.2656C149.854 63.7148 149.809 64.0078 149.809 64.1445C149.809 64.3906 149.924 64.5137 150.154 64.5137C150.545 64.5137 151.127 64.084 151.9 63.2246L151.795 63.7695C150.939 64.6875 150.172 65.1465 149.492 65.1465C148.93 65.1465 148.648 64.8516 148.648 64.2617C148.648 64.0664 148.693 63.7344 148.783 63.2656L149.357 60.3945C149.4 60.1719 149.422 59.9844 149.422 59.832C149.422 59.5156 149.305 59.3574 149.07 59.3574C148.328 59.3574 147.293 60.541 145.965 62.9082L145.543 65L144.307 65.0703ZM157.572 63.4004L157.484 63.8516C156.242 64.7148 155.184 65.1465 154.309 65.1465C153.754 65.1465 153.303 64.9531 152.955 64.5664C152.611 64.1758 152.439 63.6719 152.439 63.0547C152.439 61.9531 152.861 60.918 153.705 59.9492C154.549 58.9766 155.449 58.4902 156.406 58.4902C156.754 58.4902 157.035 58.6074 157.25 58.8418C157.465 59.0762 157.572 59.3809 157.572 59.7559C157.572 60.5059 157.189 61.1504 156.424 61.6895C155.658 62.2285 154.744 62.498 153.682 62.498L153.676 62.7617C153.676 63.9023 154.094 64.4727 154.93 64.4727C155.652 64.4727 156.533 64.1152 157.572 63.4004ZM153.693 62.1348C154.568 62.0645 155.252 61.8398 155.744 61.4609C156.236 61.0781 156.482 60.584 156.482 59.9785C156.482 59.3809 156.266 59.082 155.832 59.082C155.363 59.082 154.91 59.3945 154.473 60.0195C154.035 60.6406 153.775 61.3457 153.693 62.1348ZM160.432 59.0703H159.09L159.494 58.6367H160.514L160.848 56.9785L162.061 56.6855L161.674 58.6367H163.883L163.402 59.1523C162.898 59.0977 162.451 59.0703 162.061 59.0703H161.586L160.789 63.084C160.707 63.498 160.666 63.7891 160.666 63.957C160.666 64.2656 160.803 64.4199 161.076 64.4199C161.498 64.4199 162.074 64.1074 162.805 63.4824L162.699 64.0215C161.941 64.7715 161.213 65.1465 160.514 65.1465C159.85 65.1465 159.518 64.7793 159.518 64.0449C159.518 63.7832 159.561 63.4355 159.646 63.002L160.432 59.0703Z" fill="#CF6455"/>
</svg>
