<svg width="274" height="65" viewBox="0 0 274 65" fill="none" xmlns="http://www.w3.org/2000/svg">
<g filter="url(#filter0_d)">
<path d="M13.3307 55.1167L12.9724 53.0733L22.7144 30.1943C21.7172 30.7901 20.7815 31.2426 19.9075 31.5518C19.0237 31.8645 17.9115 32.0924 16.5708 32.2354L14.8033 32.43C14.4355 32.4607 14.1175 32.4904 13.8493 32.519C12.9686 32.6097 12.3515 32.7176 11.998 32.8426C11.2222 33.1171 10.4387 33.7312 9.64754 34.6848L9.43391 33.4019C10.4233 31.5498 11.684 30.3528 13.2159 29.8108C13.5989 29.6753 14.2534 29.5487 15.1795 29.4309L17.0353 29.205C18.441 29.028 19.7969 28.7084 21.103 28.2463C22.6054 27.7148 23.8387 27.0079 24.8028 26.1256L25.1747 28.247L15.6911 50.8855C16.7957 50.1634 17.8242 49.6339 18.7768 49.2968C19.3758 49.0849 20.2512 48.8801 21.4032 48.6824L24.2153 48.201C24.4132 48.1641 24.9038 48.09 25.6871 47.9785C26.4137 47.865 26.9636 47.7422 27.3368 47.6102C28.8295 47.0821 29.87 45.836 30.4584 43.8718L30.7353 45.447C29.9208 48.2091 28.7034 49.8767 27.083 50.45C26.3269 50.7175 25.1402 50.9551 23.5231 51.1628L21.3998 51.4336C20.229 51.5827 19.2214 51.8067 18.3769 52.1055C17.2181 52.5155 15.536 53.5192 13.3307 55.1167Z" fill="#C9C8B2"/>
<path d="M40.4956 46.5206C38.0364 47.2407 35.843 47.0529 33.9155 45.9572C31.998 44.8586 30.6215 43.0102 29.7859 40.4121C28.5326 36.515 28.782 32.6986 30.5339 28.963C32.2959 25.2245 34.9664 22.8313 38.5452 21.7833C40.9845 21.069 43.1546 21.2527 45.0558 22.3344C46.9637 23.4033 48.329 25.2169 49.1518 27.7754C50.4594 31.8411 50.2608 35.7132 48.556 39.3915C46.8612 43.0669 44.1744 45.4433 40.4956 46.5206ZM40.7551 45.3378C43.3543 44.5767 45.1451 42.5604 46.1275 39.2889C47.1099 36.0174 46.9872 32.4727 45.7594 28.6548C44.2031 23.8156 41.7305 21.8922 38.3416 22.8845C35.7424 23.6457 33.9418 25.6486 32.9398 28.8933C31.9378 32.1379 32.0428 35.6444 33.2547 39.4127C34.846 44.361 37.3462 46.336 40.7551 45.3378Z" fill="#AEB092"/>
<path d="M70.4895 39.348L70.2863 34.463C68.8055 38.0814 66.7741 40.1794 64.1921 40.7572C62.3928 41.1598 60.8066 40.8584 59.4335 39.853C58.0579 38.8375 57.1128 37.2827 56.5982 35.1888C56.2775 33.8839 56.0592 31.6863 55.9432 28.596C55.8374 25.5035 55.8704 22.5613 56.0423 19.7695C55.504 19.8046 55.1332 19.8449 54.9299 19.8904C53.2526 20.2657 52.0015 21.1752 51.1767 22.6191C50.3494 24.0529 50.1532 25.6548 50.5882 27.4251L47.9844 29.5285C46.9675 23.4703 50.3625 19.5677 58.1694 17.8208L59.2672 17.5751C59.0532 20.6752 59.0036 23.8772 59.1184 27.1812C59.2333 30.4851 59.4759 32.8907 59.8464 34.3979C60.2491 36.0367 60.8901 37.2486 61.7694 38.0337C62.6462 38.8086 63.6691 39.0653 64.8381 38.8037C66.0681 38.5285 67.1536 37.7307 68.0945 36.4102C69.0355 35.0898 69.7182 33.3949 70.1427 31.3256L69.4376 15.2994L72.8057 14.1455L72.8438 19.2755L73.3332 30.6277C73.4265 32.7092 73.5453 34.0433 73.6894 34.63C73.9579 35.7225 74.7682 36.1175 76.1201 35.815C76.5979 35.7081 77.1954 35.521 77.9126 35.2538L77.953 36.2693L70.4895 39.348Z" fill="#C0BCBC"/>
<path d="M71.2554 41.7461L72.9813 39.2612C74.2639 41.0874 75.8765 41.8406 77.8191 41.5209C79.1039 41.3094 80.0181 40.6576 80.5616 39.5654C81.1153 38.4715 81.4165 36.7119 81.465 34.2868L81.7886 15.962L77.6721 16.6394L79.4347 14.006L89.3636 12.372L87.4006 15.0384L85.0263 15.4291L84.7434 30.9923C84.6755 34.4234 83.96 37.1695 82.5967 39.2305C81.2353 41.3017 79.3211 42.5404 76.8543 42.9463C74.9425 43.2609 73.0762 42.8609 71.2554 41.7461Z" fill="#848484"/>
<path d="M117.099 34.0517C114.542 34.2082 112.461 33.5372 110.857 32.0387C109.263 30.5395 108.375 28.4284 108.192 25.7054C107.917 21.6209 109.08 17.9493 111.68 14.6907C114.29 11.4315 117.456 9.688 121.178 9.46022C123.715 9.30497 125.775 9.96685 127.356 11.4459C128.948 12.9139 129.834 14.9886 130.014 17.67C130.3 21.9313 129.174 25.6685 126.633 28.8817C124.104 32.0942 120.926 33.8176 117.099 34.0517ZM117.636 32.9544C120.34 32.789 122.562 31.218 124.304 28.2415C126.046 25.265 126.782 21.7761 126.513 17.7747C126.172 12.7028 124.24 10.2747 120.715 10.4904C118.012 10.6558 115.783 12.2115 114.029 15.1575C112.274 18.1034 111.53 21.5511 111.795 25.5005C112.144 30.6867 114.091 33.1714 117.636 32.9544Z" fill="#F1E5D9"/>
<path d="M148.03 33.6761L149.012 28.8678C146.701 32.0662 144.223 33.6596 141.577 33.6482C139.733 33.6403 138.266 32.9933 137.176 31.7074C136.086 30.411 135.543 28.6847 135.549 26.5284C135.553 25.1847 135.871 22.9933 136.504 19.9544C137.147 16.9155 137.889 14.054 138.73 11.3702C138.199 11.2845 137.829 11.2413 137.621 11.2404C135.902 11.233 134.468 11.8414 133.319 13.0656C132.17 14.2794 131.593 15.7977 131.588 17.6206L128.553 19.0919C129.027 12.9585 133.265 9.90907 141.265 9.94357L142.39 9.94843C141.434 12.9235 140.613 16.0346 139.927 19.2816C139.242 22.5287 138.897 24.9283 138.893 26.4804C138.888 28.1678 139.218 29.4922 139.882 30.4534C140.547 31.4042 141.478 31.8822 142.676 31.8873C143.936 31.8928 145.182 31.3565 146.414 30.2784C147.646 29.2004 148.718 27.6998 149.629 25.7767L152.811 9.99338L156.359 9.61806L155.159 14.6285L152.895 25.8064C152.483 27.8567 152.276 29.1839 152.275 29.7881C152.272 30.9131 152.963 31.4786 154.348 31.4846C154.838 31.4867 155.463 31.4373 156.224 31.3364L156.018 32.3355L148.03 33.6761Z" fill="#B9B9B9"/>
<path d="M180.813 24.4423L182.04 23.3385L183.931 23.5791L186.939 14.9216C186.424 14.772 186.063 14.684 185.856 14.6577C184.203 14.4473 182.708 14.8662 181.374 15.9143C180.049 16.9637 179.268 18.3343 179.032 20.0262L179.002 20.2429L175.789 21.3303C177.114 15.3144 181.796 12.818 189.835 13.8411L190.672 13.9476L187.186 23.9933L196.749 25.2104L198.31 20.6999C199.335 17.7328 200.855 15.4745 202.87 13.925C204.895 12.3767 207.117 11.7565 209.535 12.0642C210.486 12.1852 211.315 12.4219 212.023 12.7745L210.368 14.9106C209.43 13.8673 208.527 13.2904 207.659 13.18C206.564 13.0406 205.622 13.3879 204.832 14.2219C204.053 15.0572 203.276 16.5491 202.503 18.6977L198.405 29.957C197.53 32.3762 197.037 33.9882 196.924 34.7928C196.776 35.8554 197.28 36.4604 198.438 36.6076C198.944 36.6721 199.675 36.7074 200.631 36.7136L200.294 37.6628L192.274 38.0439L196.328 26.4168L186.765 25.1997L186.135 26.9939C185.138 29.8385 183.513 32.0572 181.261 33.65C179.01 35.2325 176.593 35.8594 174.01 35.5306C172.098 35.2874 170.573 34.4948 169.436 33.1531L171.917 31.2009C172.671 33.0293 173.999 34.0646 175.9 34.3065C178.639 34.655 180.754 32.6877 182.247 28.4047L183.51 24.7855L180.813 24.4423Z" fill="#C9CAC4"/>
<path d="M194.99 36.6702L197.516 35.0115C198.158 36.6917 199.265 37.6901 200.838 38.0066C202.339 38.3087 203.886 37.9719 205.477 36.9961C207.081 36.0122 209.153 34.1186 211.693 31.3151L220.804 21.2928C219.72 20.9365 218.78 20.6782 217.983 20.5179C215.849 20.0884 214.081 20.2905 212.681 21.1241C211.294 21.9497 210.382 23.3491 209.945 25.3223L206.616 26.198C207.233 24.3248 208.118 22.8511 209.273 21.7768C210.551 20.5786 211.914 19.8171 213.362 19.4923C214.81 19.1675 216.804 19.1704 219.344 19.501C219.851 19.5712 220.619 19.6674 221.648 19.7894L224.898 19.8538L223.974 24.9744L222.532 35.6956C222.194 38.188 222.123 39.8628 222.317 40.7199C222.524 41.569 223.113 42.0911 224.083 42.2864C224.257 42.3213 224.861 42.411 225.895 42.5555L225.474 43.5224L218.187 43.2669L219.221 35.6189L210.873 33.9388C208.643 36.401 206.685 38.0466 204.998 38.8756C203.313 39.6945 201.475 39.9036 199.483 39.5028C197.594 39.1226 196.096 38.1784 194.99 36.6702ZM211.781 32.9424L219.363 34.4683L220.916 22.8132L211.781 32.9424Z" fill="#E1E1E1"/>
<path d="M220.776 43.5306L223.652 41.9141L223.969 41.9998C225.477 42.4081 226.619 42.3503 227.394 41.8264C228.171 41.2926 229.155 39.9028 230.344 37.6571L236.897 25.2065C234.826 24.6459 232.987 24.7469 231.38 25.5095C229.777 26.2622 228.711 27.5272 228.183 29.3045L228.085 29.634L224.74 30.2499C225.9 27.2626 227.763 25.3448 230.329 24.4967C232.898 23.6386 236.334 23.792 240.638 24.9569C243.674 25.7788 245.745 26.6898 246.849 27.6899C247.963 28.6927 248.296 29.948 247.848 31.4557C246.943 34.5011 243.998 36.0019 239.013 35.9581C242.526 38.2467 243.962 40.4694 243.321 42.6262C242.748 44.5532 241.204 45.8936 238.687 46.6473C236.174 47.3911 233.369 47.3438 230.272 46.5055L226.733 45.4182L220.776 43.5306ZM235.541 34.6461L236.326 34.8583C238.186 35.3618 239.886 35.2341 241.426 34.4751C242.969 33.706 243.99 32.4828 244.489 30.8054C245.189 28.4489 243.88 26.8217 240.562 25.9235L240.185 25.8215L235.541 34.6461ZM226.965 43.1022L228.432 43.8713C229.872 44.6172 231.442 45.2201 233.141 45.6801C236.6 46.6163 238.806 45.4819 239.759 42.2767C240.225 40.7091 240.073 39.3358 239.305 38.1569C238.549 36.9706 237.282 36.1367 235.502 35.6549L235.065 35.5366L234.234 37.1242C232.597 40.2196 230.174 42.2123 226.965 43.1022Z" fill="#838383"/>
<path d="M239.586 47.3345L242.33 46.0299C242.73 47.7741 243.689 48.9064 245.207 49.4267C246.655 49.9233 248.239 49.7948 249.958 49.0413C251.69 48.2815 254.016 46.6848 256.935 44.2514L267.402 35.5563C266.376 35.0613 265.478 34.6821 264.71 34.4185C262.65 33.7125 260.866 33.6786 259.357 34.3171C257.862 34.9492 256.758 36.2108 256.046 38.102L252.615 38.5272C253.493 36.7586 254.581 35.4201 255.88 34.5116C257.319 33.497 258.78 32.9249 260.264 32.7953C261.748 32.6657 263.728 32.9319 266.205 33.5939C266.699 33.7302 267.448 33.9266 268.453 34.1831L271.672 34.6758L270.031 39.611L267.083 50.0092C266.395 52.4262 266.088 54.0708 266.16 54.943C266.245 55.8089 266.756 56.4023 267.692 56.7233C267.86 56.7807 268.447 56.9491 269.455 57.2285L268.899 58.1277L261.696 56.913L263.805 49.4962L255.75 46.7344C253.187 48.8717 251.009 50.2383 249.216 50.8343C247.427 51.4205 245.571 51.3842 243.65 50.7254C241.827 50.1004 240.472 48.9701 239.586 47.3345ZM256.793 45.8702L264.109 48.3787L267.298 37.0727L256.793 45.8702Z" fill="#E3E0E0"/>
</g>
<defs>
<filter id="filter0_d" x="7.43391" y="9.43811" width="266.238" height="54.6896" filterUnits="userSpaceOnUse" color-interpolation-filters="sRGB">
<feFlood flood-opacity="0" result="BackgroundImageFix"/>
<feColorMatrix in="SourceAlpha" type="matrix" values="0 0 0 0 0 0 0 0 0 0 0 0 0 0 0 0 0 0 127 0"/>
<feOffset dy="4"/>
<feGaussianBlur stdDeviation="1"/>
<feColorMatrix type="matrix" values="0 0 0 0 0 0 0 0 0 0 0 0 0 0 0 0 0 0 0.25 0"/>
<feBlend mode="normal" in2="BackgroundImageFix" result="effect1_dropShadow"/>
<feBlend mode="normal" in="SourceGraphic" in2="effect1_dropShadow" result="shape"/>
</filter>
</defs>
</svg>
